<svg xmlns="http://www.w3.org/2000/svg" viewBox="0 0 865 285"><defs><style>.cls-1{fill:#31020d;stroke:#31020d;stroke-miterlimit:10;}</style></defs><title>Artboard 8</title><g id="Layer_5" data-name="Layer 5"><path class="cls-1" d="M828.81,73.27a123.4,123.4,0,0,0-118.94-32A123.14,123.14,0,0,0,617.86,0c31.66,0,59.9,17.81,78.44,45.65a122.89,122.89,0,0,0-42.24,27.62,86.69,86.69,0,0,1,44.73-23.55C711.4,70.34,719,95.84,719,123.57c0,45.72-20.36,85.54-50.55,106.91C621.6,182.26,615,112.32,654.06,73.27a123.18,123.18,0,0,0-36.2,87.29,123.18,123.18,0,0,0-36.19-87.3c39.05,39,32.45,109-14.36,157.21-30.19-21.37-50.55-61.18-50.55-106.9,0-27.73,7.57-53.24,20.18-73.86a86.69,86.69,0,0,1,44.73,23.55,123.09,123.09,0,0,0-42.23-27.62C558,17.8,586.21,0,617.86,0a123.12,123.12,0,0,0-92,41.27,123.64,123.64,0,0,0-93.38,12.5,123.62,123.62,0,0,0-93.34-12.49A123.12,123.12,0,0,0,247.15,0C278.81,0,307,17.81,325.58,45.65a123.22,123.22,0,0,0-42.24,27.62,86.73,86.73,0,0,1,44.73-23.55c12.62,20.62,20.18,46.12,20.18,73.85,0,45.72-20.36,85.53-50.55,106.9-46.81-48.21-53.41-118.15-14.36-157.2a123.2,123.2,0,0,0-36.2,87.35A123.2,123.2,0,0,0,211,73.26c39,39,32.44,109-14.37,157.21-30.19-21.37-50.54-61.18-50.54-106.9,0-27.73,7.56-53.24,20.18-73.86A86.77,86.77,0,0,1,211,73.26a123.22,123.22,0,0,0-42.24-27.62C187.26,17.8,215.49,0,247.15,0a123.16,123.16,0,0,0-92,41.27A123.5,123.5,0,0,0,36.19,248C-3.29,208.53,3.83,137.42,52.09,89.15c28.3-28.31,64.45-42.33,97.49-41.23a123.26,123.26,0,0,0,43.07,186.43C144.46,280.52,75,286.86,36.19,248A123.59,123.59,0,0,0,211,248c1.64-1.64,3.08-3.4,4.61-5.1a123.58,123.58,0,0,0,31.58,4.22,84.18,84.18,0,0,1-30.29-5.65,123.1,123.1,0,0,0,30.28-80.83,123.14,123.14,0,0,0,30.29,80.83,84.17,84.17,0,0,1-30.28,5.65,123.56,123.56,0,0,0,31.57-4.22c1.53,1.71,3,3.46,4.62,5.11a123.54,123.54,0,0,0,149.17,19.5A123.52,123.52,0,0,0,581.67,248c1.64-1.64,3.09-3.4,4.61-5.1a123.7,123.7,0,0,0,31.58,4.22,84.26,84.26,0,0,1-30.29-5.65,123.11,123.11,0,0,0,30.29-80.77,123.07,123.07,0,0,0,30.28,80.78,84.38,84.38,0,0,1-30.28,5.64,123.12,123.12,0,0,0,31.57-4.22c1.53,1.71,3,3.47,4.61,5.11a123.6,123.6,0,0,0,174.77,0c-38.85,38.84-108.26,32.5-156.46-13.67A123.24,123.24,0,0,0,715.43,47.93c33-1.1,69.18,12.92,97.48,41.22,48.27,48.28,55.38,119.4,15.9,158.88A123.59,123.59,0,0,0,828.81,73.27Zm-394.22,193A124,124,0,0,0,458.1,248a84.38,84.38,0,0,1-25.58,17.48A84.36,84.36,0,0,1,406.91,248a123.48,123.48,0,0,0,23.53,18.28c-39.09,16.17-90.59,4.66-128.8-32A123.25,123.25,0,0,0,344.72,47.93c22.78-.76,47,5.64,69.17,19-2.37,2-4.74,4.06-7,6.3a123.57,123.57,0,0,0,0,174.76c-39.48-39.49-32.36-110.6,15.89-158.87,3.14-3.14,6.39-6.08,9.71-8.87,3.31,2.79,6.56,5.73,9.7,8.87,48.26,48.28,55.36,119.4,15.89,158.88a123.57,123.57,0,0,0,0-174.76c-2.25-2.24-4.61-4.27-7-6.31,22.16-13.39,46.4-19.8,69.19-19a123.24,123.24,0,0,0,43.07,186.43C525.16,271,473.68,282.45,434.59,266.3Z"/></g></svg>