<svg xmlns="http://www.w3.org/2000/svg" viewBox="0 0 238 275"><defs><style>.cls-1{fill:#31020d;}</style></defs><title>Artboard 2</title><g id="Layer_2" data-name="Layer 2"><path class="cls-1" d="M93.41,230.93a5,5,0,0,1-4.93-4.18c-1.76-4.86-22.64-23.89-41.12-38.86A127.64,127.64,0,0,1,17.65,154.3c-12.18-19.83-24-51.87-11-91.91C19.75,22,43.23,8,60.62,3.35A69.55,69.55,0,0,1,95.8,3.13c20.36,5.67,30.33,18.55,35.11,28.36a54.43,54.43,0,0,1,5.5,20.29,5,5,0,0,1-10,.31c0-1.24-1.48-30.49-33.34-39.34l-.12,0C90.75,12.05,38.3-2.77,16.17,65.47,6.73,94.59,10,122.61,26,148.76A119.44,119.44,0,0,0,53.37,179.9l.19.14c.11.09,10.72,8.69,21.31,18.16,22.65,20.25,23.21,24.71,23.51,27.11A5,5,0,0,1,94,230.89,4.4,4.4,0,0,1,93.41,230.93Zm-4.9-4.11Z"/><path class="cls-1" d="M83.92,274.42a4.6,4.6,0,0,1-1-.11,5,5,0,0,1-3.86-5.9c.39-1.86,10.19-45.79,68.82-72.53,49.25-22.46,73.65-48.13,79.13-83.22,2.35-15-2.31-31.22-12.45-43.43-9.19-11.08-21.54-17.4-34.76-17.8-29.54-.86-50.23,37-50.44,37.36a5,5,0,1,1-8.81-4.72c1-1.79,23.9-43.77,59.56-42.64,16.13.49,31.09,8.09,42.15,21.41,11.94,14.39,17.41,33.59,14.64,51.36C230.8,153,204.62,181,152,205c-53.78,24.53-63.1,65.08-63.18,65.49A5,5,0,0,1,83.92,274.42Z"/></g></svg>