<svg xmlns="http://www.w3.org/2000/svg" viewBox="0 0 238 276"><defs><style>.cls-1{fill:#31020d;}.cls-2{fill:#fff;}</style></defs><title>Artboard 3</title><g id="Layer_2" data-name="Layer 2"><path class="cls-1" d="M125.91,83.43s11-30,8-39c-7.38-16.41-25-44-58-39s-68,27-70,91,49,92,49,92,37,38,34,38.54c0-.54,8,13.46,2,21.46,0,0,66-62,92-69,0,0,92-63,19-129C201.91,50.43,158.91,23.43,125.91,83.43Z"/><path class="cls-2" d="M92.41,229.93a5,5,0,0,1-4.93-4.18c-1.76-4.86-22.64-23.89-41.12-38.86A127.64,127.64,0,0,1,16.65,153.3c-12.18-19.83-24-51.87-11-91.91C18.75,21,42.23,7,59.62,2.35A69.55,69.55,0,0,1,94.8,2.13c20.36,5.67,30.33,18.55,35.11,28.36a54.43,54.43,0,0,1,5.5,20.29,5,5,0,0,1-4.85,5.15h-.15a5,5,0,0,1-5-4.84c0-1.24-1.48-30.49-33.34-39.34l-.12,0C89.75,11.06,37.3-3.77,15.17,64.47,5.73,93.59,9,121.61,25,147.76A119.44,119.44,0,0,0,52.37,178.9l.19.14c.11.09,10.72,8.69,21.31,18.16,22.65,20.25,23.21,24.71,23.51,27.11A5,5,0,0,1,93,229.89,4.4,4.4,0,0,1,92.41,229.93Zm-4.9-4.11Z"/><path class="cls-2" d="M82.92,273.42a4.6,4.6,0,0,1-1-.11,5,5,0,0,1-3.86-5.9c.39-1.86,10.19-45.79,68.82-72.53,49.25-22.46,73.65-48.13,79.13-83.22,2.35-15-2.31-31.22-12.45-43.43-9.19-11.08-21.54-17.4-34.76-17.8-29.52-.87-50.23,37-50.44,37.36a5,5,0,1,1-8.81-4.72c1-1.79,23.88-43.76,59.56-42.64,16.13.49,31.09,8.09,42.15,21.41,11.94,14.39,17.41,33.59,14.64,51.36C229.8,152,203.62,180,151,204c-53.78,24.53-63.1,65.08-63.18,65.49A5,5,0,0,1,82.92,273.42Z"/></g></svg>