<svg xmlns="http://www.w3.org/2000/svg" viewBox="0 0 1101 605"><defs><style>.cls-1{font-size:103.87px;font-family:PoplarStd, Poplar Std;}.cls-1,.cls-3{fill:#f7d3d2;}.cls-2{fill:#638290;}.cls-4{fill:none;stroke:#638290;stroke-miterlimit:10;stroke-width:15px;}</style></defs><title>Artboard 19</title><g id="Layer_7" data-name="Layer 7"><text class="cls-1" transform="matrix(-0.53, -0.73, 0.81, -0.59, 411.17, 456.09)"> </text><text class="cls-1" transform="matrix(-0.5, -0.76, 0.84, -0.55, 406.15, 449.23)"> </text><text class="cls-1" transform="matrix(-0.46, -0.78, 0.86, -0.51, 401.46, 442.12)"> </text><text class="cls-1" transform="translate(397.15 434.83) rotate(-117.62) scale(0.9 1)"> </text><text class="cls-1" transform="translate(393.19 427.31) rotate(-114.8) scale(0.9 1)"> </text><text class="cls-1" transform="translate(389.61 419.6) rotate(-111.97) scale(0.9 1)"> </text><text class="cls-1" transform="matrix(-0.3, -0.85, 0.94, -0.33, 386.41, 411.72)"> </text><text class="cls-1" transform="matrix(-0.25, -0.87, 0.96, -0.28, 383.61, 403.72)"> </text><text class="cls-1" transform="translate(381.2 395.57) rotate(-103.48) scale(0.9 1)"> </text><text class="cls-1" transform="matrix(-0.17, -0.89, 0.98, -0.18, 379.2, 387.33)"> </text><text class="cls-1" transform="translate(377.6 378.96) rotate(-97.83) scale(0.9 1)"> </text><text class="cls-1" transform="matrix(-0.08, -0.9, 1, -0.09, 376.43, 370.55)"> </text><text class="cls-1" transform="translate(375.66 362.09) rotate(-92.25) scale(0.9 1)"> </text><text class="cls-1" transform="matrix(0.01, -0.9, 1, 0.02, 375.27, 353.58)"> </text><text class="cls-1" transform="translate(375.36 345.06) rotate(-86.7) scale(0.9 1)"> </text><text class="cls-1" transform="translate(375.83 336.58) rotate(-83.91) scale(0.9 1)"> </text><text class="cls-1" transform="translate(376.71 328.13) rotate(-81.1) scale(0.9 1)"> </text><text class="cls-1" transform="translate(378 319.74) rotate(-78.28) scale(0.9 1)"> </text><text class="cls-1" transform="translate(379.71 311.41) rotate(-75.45) scale(0.9 1)"> </text><text class="cls-1" transform="translate(381.82 303.17) rotate(-72.61) scale(0.9 1)"> </text><text class="cls-1" transform="matrix(0.31, -0.85, 0.94, 0.35, 384.33, 295.09)"> </text><text class="cls-1" transform="translate(385.36 288.09) rotate(-61.62) scale(0.9 1)">D</text><text class="cls-1" transform="translate(405.69 251.72) rotate(-51.05) scale(0.9 1)">r</text><text class="cls-1" transform="translate(419.64 233.48) rotate(-41.93) scale(0.9 1)">e</text><text class="cls-1" transform="matrix(0.77, -0.47, 0.52, 0.86, 443.35, 211.69)">a</text><text class="cls-1" transform="translate(470.74 193.48) rotate(-17.65) scale(0.9 1)">m</text><text class="cls-1" transform="translate(516.91 178.74) rotate(-2.96) scale(0.9 1)">T</text><text class="cls-1" transform="translate(555.35 176.57) rotate(8.03) scale(0.9 1)">e</text><text class="cls-1" transform="translate(587.26 180.69) rotate(18.92) scale(0.9 1)">a</text><text class="cls-1" transform="translate(618.8 190.01) rotate(32.38) scale(0.9 1)">m</text><text class="cls-1" transform="matrix(0.68, 0.6, -0.66, 0.75, 660.07, 217.99)"> </text><text class="cls-1" transform="matrix(0.62, 0.65, -0.72, 0.69, 666.23, 223.06)">I</text><text class="cls-1" transform="matrix(0.52, 0.74, -0.82, 0.58, 679.97, 236.45)">n</text><text class="cls-1" transform="translate(698.57 262.37) rotate(65.19) scale(0.9 1)">c</text><text class="cls-1" transform="translate(711.55 291.43) rotate(72.94) scale(0.9 1)">.</text><polygon class="cls-2" points="27.75 436.58 33.44 432.05 555.02 15.79 556.58 17.06 784.56 202.78 785.5 119.97 785.5 100.5 844.5 100.5 844.5 120 843.51 250.82 1066.98 434.5 942 434.5 942 429.5 1053.02 429.5 838.49 253.17 838.5 251.98 839.5 119.98 839.5 105.5 790.5 105.5 790.5 120 789.44 213.21 554.98 22.21 42.24 431.42 122.47 430.5 122.53 435.5 27.75 436.58"/><path class="cls-3" d="M223.4,494.71s-34.23-6.84-46-46,19.07-69.91,19.07-69.91,44-47.91,112.44-27.38l3.92,2s-12.72-28.36,24.44-50.85c0,0,23.47-14.66,51.82,0l3.92,3.91S397,224.35,503.54,199.9s190.67,55.74,190.67,131c0,0,54.76-3.91,79.2,42l2,3.92s38.13-18.58,69.42,16.62,2.93,75.29,2.93,75.29-18.57,24.44-40.09,26.4S223.4,494.71,223.4,494.71Z"/><path class="cls-2" d="M691.92,498.28c-171,0-451.82-1.21-468.43-1.28L223,497c-1.49-.3-36.61-7.77-48.91-48.73C162,408,192.83,375.67,194.19,374.28c.8-.87,12.09-12.84,32-22.41,18.54-8.93,48.31-17.25,85-6.44-1.92-10.05-1.82-31.79,27.57-49.57,1-.62,25.52-15.56,55.44-.08l.34.18.62.61a114.12,114.12,0,0,1,15.38-41c13.59-22.43,41.79-51.91,98.95-65,26.93-6.17,53.53-6.2,79.06-.09a164.11,164.11,0,0,1,63.61,31c33.91,27,54.45,65.3,55.36,102.91a106.44,106.44,0,0,1,29.34,4.06c16.09,4.58,38.07,15.3,51.4,40.35l1,2a66.21,66.21,0,0,1,22.27-4.28c13.09-.2,32.26,3.53,49.42,22.84s17.16,40.17,14.07,54.2a77.48,77.48,0,0,1-10.9,25.9c-.85,1.13-20,26-42.81,28.05C814.82,498.07,762.8,498.28,691.92,498.28ZM223.77,492c14.92.06,575.56,2.46,597,.51,20.63-1.88,39.06-25.78,39.24-26a74.1,74.1,0,0,0,10.08-24.2c4.07-18.68-.29-35.38-13-49.63s-28-21.43-45.38-21.16a59.37,59.37,0,0,0-22.66,4.75l-2.22,1.07-3.11-6.2c-23.89-44.92-78-41.66-78.58-41.63l-2.68.19V327c0-36.93-20-74.9-53.5-101.59-38.8-30.91-88-41.55-138.44-30-55.31,12.68-82.55,41-95.66,62.5-14.22,23.33-15.39,44-15.4,44.18l-.28,5.63L391.51,300c-27.16-13.84-49.26-.5-50.19.08-35.56,21.52-24.52,47.76-24,48.86l2.8,6.35-10-5c-35.21-10.5-63.78-2.56-81.56,6-19.4,9.29-30.57,21.28-30.68,21.4l-.07.08c-.31.3-30.29,31-18.88,69C189.93,483.57,220.57,491.29,223.77,492Z"/><polyline class="cls-4" points="123 435 30.37 434.38 557 17 785 203 785 100 844 100 844 251 1053 429 942 429"/></g></svg>