<svg xmlns="http://www.w3.org/2000/svg" viewBox="0 0 1046 489"><defs><style>.cls-1{fill:#31020d;}.cls-2{fill:#f7d3d2;}.cls-3{font-size:103.87px;fill:#638290;font-family:PoplarStd, Poplar Std;}</style></defs><title>Artboard 17</title><g id="Layer_7" data-name="Layer 7"><path class="cls-1" d="M197.4,481.71s-34.23-6.84-46-46,19.07-69.91,19.07-69.91,44-47.91,112.44-27.38l3.92,2s-12.72-28.36,24.44-50.85c0,0,23.47-14.66,51.82,0l3.92,3.91S371,211.35,477.54,186.9s190.67,55.74,190.67,131c0,0,54.76-3.91,79.2,42l2,3.92s38.13-18.58,69.42,16.62,2.93,75.29,2.93,75.29-18.57,24.44-40.09,26.4S197.4,481.71,197.4,481.71Z"/><path class="cls-2" d="M666.92,486.28c-171,0-451.82-1.21-468.43-1.28L198,485c-1.49-.3-36.61-7.77-48.91-48.73C137,396,167.83,363.67,169.19,362.28c.8-.87,12.09-12.84,32-22.41,18.54-8.93,48.31-17.25,85-6.44-1.92-10.05-1.82-31.79,27.57-49.57,1-.62,25.52-15.56,55.44-.08l.34.18.62.61a114.12,114.12,0,0,1,15.38-41c13.59-22.43,41.79-51.91,98.95-65,26.93-6.17,53.53-6.2,79.06-.09a164.11,164.11,0,0,1,63.61,31c33.91,27,54.45,65.3,55.36,102.91a106,106,0,0,1,29.34,4.06c16.09,4.58,38.07,15.3,51.4,40.35l1,2a66.21,66.21,0,0,1,22.27-4.28c13.11-.23,32.26,3.53,49.42,22.84s17.16,40.17,14.07,54.2a77.48,77.48,0,0,1-10.9,25.9c-.85,1.13-20,26-42.81,28.05C789.82,486.07,737.8,486.28,666.92,486.28ZM198.77,480c14.92.06,575.56,2.46,597,.51,20.63-1.88,39.06-25.78,39.24-26a74.1,74.1,0,0,0,10.08-24.2c4.07-18.68-.29-35.38-13-49.63s-28-21.43-45.38-21.16a59.37,59.37,0,0,0-22.66,4.75l-2.22,1.07-3.11-6.2c-23.89-44.92-78-41.66-78.58-41.63l-2.68.19V315c0-36.93-20-74.9-53.5-101.59-38.8-30.91-88-41.55-138.44-30-55.31,12.68-82.55,41-95.66,62.5-14.22,23.33-15.39,44-15.4,44.18l-.28,5.63L366.51,288c-27.17-13.84-49.26-.5-50.19.08-35.56,21.52-24.52,47.76-24,48.86l2.8,6.35-10-5c-35.21-10.5-63.78-2.56-81.56,6-19.4,9.29-30.57,21.28-30.68,21.4l-.07.08c-.31.3-30.29,31-18.88,69C164.93,471.57,195.57,479.29,198.77,480Z"/><text class="cls-3" transform="matrix(-0.53, -0.73, 0.81, -0.59, 386.17, 444.09)"> </text><text class="cls-3" transform="translate(381.15 437.23) rotate(-123.25) scale(0.9 1)"> </text><text class="cls-3" transform="matrix(-0.46, -0.78, 0.86, -0.51, 376.46, 430.12)"> </text><text class="cls-3" transform="matrix(-0.42, -0.8, 0.89, -0.46, 372.15, 422.83)"> </text><text class="cls-3" transform="translate(368.19 415.31) rotate(-114.8) scale(0.9 1)"> </text><text class="cls-3" transform="translate(364.61 407.6) rotate(-111.97) scale(0.9 1)"> </text><text class="cls-3" transform="translate(361.41 399.73) rotate(-109.14) scale(0.9 1)"> </text><text class="cls-3" transform="matrix(-0.25, -0.87, 0.96, -0.28, 358.61, 391.72)"> </text><text class="cls-3" transform="translate(356.2 383.58) rotate(-103.48) scale(0.9 1)"> </text><text class="cls-3" transform="matrix(-0.17, -0.89, 0.98, -0.18, 354.2, 375.33)"> </text><text class="cls-3" transform="translate(352.6 366.96) rotate(-97.83) scale(0.9 1)"> </text><text class="cls-3" transform="matrix(-0.08, -0.9, 1, -0.09, 351.43, 358.56)"> </text><text class="cls-3" transform="translate(350.66 350.09) rotate(-92.25) scale(0.9 1)"> </text><text class="cls-3" transform="matrix(0.01, -0.9, 1, 0.02, 350.27, 341.58)"> </text><text class="cls-3" transform="translate(350.36 333.07) rotate(-86.7) scale(0.9 1)"> </text><text class="cls-3" transform="translate(350.83 324.58) rotate(-83.91) scale(0.9 1)"> </text><text class="cls-3" transform="translate(351.71 316.13) rotate(-81.1) scale(0.9 1)"> </text><text class="cls-3" transform="translate(353 307.74) rotate(-78.28) scale(0.9 1)"> </text><text class="cls-3" transform="translate(354.71 299.41) rotate(-75.45) scale(0.9 1)"> </text><text class="cls-3" transform="translate(356.82 291.17) rotate(-72.61) scale(0.9 1)"> </text><text class="cls-3" transform="matrix(0.31, -0.85, 0.94, 0.35, 359.33, 283.09)"> </text><text class="cls-3" transform="translate(360.36 276.09) rotate(-61.62) scale(0.9 1)">D</text><text class="cls-3" transform="translate(380.69 239.72) rotate(-51.05) scale(0.9 1)">r</text><text class="cls-3" transform="translate(394.64 221.49) rotate(-41.93) scale(0.9 1)">e</text><text class="cls-3" transform="matrix(0.77, -0.47, 0.52, 0.86, 418.35, 199.69)">a</text><text class="cls-3" transform="matrix(0.86, -0.27, 0.3, 0.95, 445.74, 181.48)">m</text><text class="cls-3" transform="translate(491.91 166.74) rotate(-2.96) scale(0.9 1)">T</text><text class="cls-3" transform="matrix(0.9, 0.13, -0.14, 0.99, 530.35, 164.57)">e</text><text class="cls-3" transform="translate(562.26 168.69) rotate(18.92) scale(0.9 1)">a</text><text class="cls-3" transform="translate(593.79 178.01) rotate(32.38) scale(0.9 1)">m</text><text class="cls-3" transform="matrix(0.68, 0.6, -0.66, 0.75, 635.07, 205.99)"> </text><text class="cls-3" transform="matrix(0.62, 0.65, -0.72, 0.69, 641.23, 211.06)">I</text><text class="cls-3" transform="matrix(0.52, 0.74, -0.82, 0.58, 654.96, 224.45)">n</text><text class="cls-3" transform="translate(673.57 250.37) rotate(65.19) scale(0.9 1)">c</text><text class="cls-3" transform="translate(686.55 279.43) rotate(72.94) scale(0.9 1)">.</text><polygon class="cls-2" points="2.75 424.58 8.44 420.05 530.01 3.79 531.58 5.06 759.56 190.78 760.5 107.97 760.5 88.5 819.5 88.5 819.5 108 818.51 238.82 1041.98 422.5 917 422.5 917 417.5 1028.02 417.5 813.49 241.17 813.5 239.98 814.5 107.98 814.5 93.5 765.5 93.5 765.5 108 764.44 201.21 529.98 10.21 17.24 419.42 97.47 418.5 97.53 423.5 2.75 424.58"/></g></svg>